<svg xmlns="http://www.w3.org/2000/svg" xmlns:xlink="http://www.w3.org/1999/xlink">
    <symbol id="pollen" viewBox="0 0 512 512" preserveAspectRatio="xMidYMid meet">
        <g transform="translate(0.000000,512.000000) scale(0.100000,-0.100000)" fill="#C4C4C4" stroke="none">
            <path d="M2082 4964 c-62 -52 -112 -99 -112 -102 0 -4 99 -122 220 -262 l219 -255 1 -392 0 -392 -47 -21 -47 -21 -266 266 -266 266 -26 335 c-14 184 -28 337 -31 340 -5 5 -288 -14 -294 -20 -2 -2 14 -221 21 -290 l4 -39 -54 54 -54 54 -107 -108 -108 -107 55 -55 54 -54 -35 4 c-45 7 -293 25 -295 22 -6 -5 -25 -289 -21 -294 3 -3 156 -16 339 -30 l333 -25 279 -278 c164 -164 276 -282 272 -289 -5 -8 -120 -11 -394 -11 l-387 1 -175 150 c-96 83 -214 184 -262 225 l-86 74 -96 -112 c-53 -61 -96 -114 -96 -117 0 -3 54 -51 120 -106 65 -55 119 -103 119 -107 1 -5 -33 -8 -74 -8 l-75 0 0 -150 0 -149 75 -3 76 -3 -105 -89 c-159 -134 -153 -107 -44 -235 51 -60 95 -110 98 -110 3 -1 121 98 262 219 l257 220 392 -2 392 -3 -159 -135 c-239 -202 -438 -384 -648 -590 -816 -802 -1258 -1508 -1302 -2083 l-7 -87 152 0 151 0 0 28 c0 71 34 236 70 346 110 328 326 671 696 1103 257 302 800 825 1162 1120 l74 60 54 -26 54 -26 0 -391 0 -391 -220 -256 c-121 -141 -220 -260 -219 -264 0 -7 204 -185 219 -191 3 -1 53 53 110 120 l105 123 3 -73 3 -72 149 0 150 0 0 70 c0 39 3 70 8 69 6 0 101 -109 189 -216 l21 -26 115 98 115 98 -224 261 -224 261 0 390 0 391 49 21 49 20 265 -266 266 -266 20 -275 c12 -151 24 -304 27 -339 l7 -64 116 7 c64 4 131 9 150 13 l33 6 -5 61 c-4 33 -9 106 -13 161 l-6 100 54 -52 53 -53 108 108 107 107 -53 54 -52 53 90 -6 c50 -4 122 -9 161 -13 l71 -6 6 44 c13 89 20 259 11 259 -5 0 -157 11 -339 26 l-330 25 -276 275 -276 276 14 51 c17 68 17 182 -2 243 l-15 49 275 275 275 276 335 25 c184 14 338 29 342 32 6 7 -12 285 -19 292 -2 2 -74 -2 -161 -8 -86 -7 -157 -10 -157 -7 0 3 23 28 50 55 l50 49 -102 103 c-57 57 -107 103 -112 103 -6 0 -32 -21 -58 -47 l-48 -47 0 31 c0 18 5 89 11 158 6 70 9 128 7 131 -6 5 -288 27 -293 22 -3 -2 -16 -155 -30 -339 l-26 -334 -268 -268 -267 -268 -47 22 -47 23 0 389 0 389 220 256 c121 141 220 260 220 264 0 4 -50 50 -111 103 l-110 95 -107 -125 -107 -125 -3 75 -3 75 -149 0 -149 0 -3 -74 -3 -75 -85 100 c-47 55 -94 111 -106 124 l-20 25 -112 -96z m568 -1706 c48 -33 72 -70 77 -121 7 -60 -11 -110 -52 -146 -76 -66 -168 -62 -237 10 -57 60 -63 140 -15 209 47 70 160 93 227 48z"/>
            <path d="M4501 3619 c-107 -149 -204 -275 -215 -280 -12 -5 -210 -54 -441 -110 -231 -56 -421 -103 -423 -104 -3 -2 65 -286 70 -289 2 -2 201 45 443 105 l440 107 303 -155 c167 -85 305 -153 307 -152 1 2 32 63 69 136 l65 131 -144 74 c-79 40 -139 76 -132 79 7 3 38 11 70 18 31 7 57 17 57 22 0 9 -32 142 -61 250 l-9 37 -70 -18 c-39 -10 -70 -15 -70 -12 0 3 38 58 85 123 47 65 88 125 91 132 3 8 -38 44 -110 95 -63 45 -118 82 -123 82 -4 0 -95 -122 -202 -271z"/>
        </g>
    </symbol>
    <symbol id="news" viewBox="-2 4 36 30" preserveAspectRatio="xMidYMid meet">
        <g fill="#C4C4C4">
            <path d="M4,14h20v-2H4V14z M15,26h7v-2h-7V26z M15,22h9v-2h-9V22z M15,18h9v-2h-9V18z M4,26h9V16H4V26z M28,10V6H0v22c0,0,0,4,4,4   h25c0,0,3-0.062,3-4V10H28z M4,30c-2,0-2-2-2-2V8h24v20c0,0.921,0.284,1.558,0.676,2H4z"/>
        </g>
    </symbol>
    <symbol id="corona" viewBox="2 2 29 28" preserveAspectRatio="xMidYMid meet">
        <g fill="#C4C4C4">
            <path d="M29,14a1,1,0,0,0-1,1H26.949a10.947,10.947,0,0,0-2.5-6.034l0.745-.745a1,1,0,0,0,1.414-1.414L25.192,5.394a1,1,0,0,0-1.414,1.414l-0.745.745A10.947,10.947,0,0,0,17,5.051V4a1,1,0,0,0,0-2H15a1,1,0,0,0,0,2V5.051a10.947,10.947,0,0,0-6.034,2.5L8.222,6.808A1,1,0,0,0,6.808,5.394L5.394,6.808A1,1,0,1,0,6.808,8.222L7.552,8.966A10.947,10.947,0,0,0,5.051,15H4a1,1,0,0,0-2,0v2a1,1,0,0,0,2,0H5.051a10.947,10.947,0,0,0,2.5,6.034l-0.745.745a1,1,0,0,0-1.414,1.414l1.414,1.414a1,1,0,0,0,1.414-1.414l0.745-.745A10.947,10.947,0,0,0,15,26.949V28a1,1,0,0,0,0,2h2a1,1,0,0,0,0-2V26.949a10.947,10.947,0,0,0,6.034-2.5l0.745,0.745a1,1,0,1,0,1.414,1.414l1.414-1.414a1,1,0,0,0-1.414-1.414l-0.745-.745A10.947,10.947,0,0,0,26.949,17H28a1,1,0,0,0,2,0V15A1,1,0,0,0,29,14ZM16,25a9,9,0,1,1,9-9A9.01,9.01,0,0,1,16,25Z"/>
            <path d="M19.5,14A3.5,3.5,0,1,0,23,17.5,3.5,3.5,0,0,0,19.5,14Zm0,5A1.5,1.5,0,1,1,21,17.5,1.5,1.5,0,0,1,19.5,19Z"/>
            <path d="M17,12a3,3,0,1,0-3,3A3,3,0,0,0,17,12Zm-3,1a1,1,0,1,1,1-1A1,1,0,0,1,14,13Z"/>
            <path d="M12.5,17A2.5,2.5,0,1,0,15,19.5,2.5,2.5,0,0,0,12.5,17Zm0,3a0.5,0.5,0,1,1,.5-0.5A0.5,0.5,0,0,1,12.5,20Z"/>
        </g>
    </symbol>
    <symbol id="bioweather" viewBox="-1 -1 23 24" preserveAspectRatio="xMidYMid meet">
        <path d="M20.272,12.241a8.725,8.725,0,0,1-1.846-3.068,9.2,9.2,0,0,0-18.4-.212c-.287,3.2,2.049,5.964,3.4,8.543a9.978,9.978,0,0,1,.6,2.969,2.14,2.14,0,0,0,2.143,1.961H7.412a2.155,2.155,0,0,0,2.152-2.152V17.91H12.4a3.967,3.967,0,0,0,3.964-3.963.34.34,0,0,0-.34-.34H12.848a3.96,3.96,0,0,0-3.284,1.747V11.568h1.472A3.967,3.967,0,0,0,15,7.6a.34.34,0,0,0-.339-.34H12.848A3.963,3.963,0,0,0,9.564,9.011V8.057A3.968,3.968,0,0,0,5.6,4.093H4.241a.341.341,0,0,0-.34.34A3.968,3.968,0,0,0,7.865,8.4H8.884v3.785A3.963,3.963,0,0,0,5.6,10.435H2.882a.341.341,0,0,0-.34.34,3.968,3.968,0,0,0,3.964,3.964H8.884v5.543a1.473,1.473,0,0,1-1.472,1.472H6.171a1.463,1.463,0,0,1-1.466-1.341A9.534,9.534,0,0,0,2.71,14.9,8.661,8.661,0,0,1,8.741.7a8.562,8.562,0,0,1,9.006,8.51,8.175,8.175,0,0,0,2.006,3.465,1,1,0,0,1,.279.669c-.008.045-.033.185-.29.334a15.431,15.431,0,0,1-1.833.871.339.339,0,0,0-.214.361,13.26,13.26,0,0,1,.036,3.233c-.1.509-1.247.851-2.862.851a1.38,1.38,0,0,0-1.5,1.448v1.648a.34.34,0,0,0,.679,0V20.446a.724.724,0,0,1,.819-.768c4.116-.021,3.757-1.469,3.531-4.591C19.56,14.568,21.653,13.917,20.272,12.241Zm-7.424,2.045h2.814A3.29,3.29,0,0,1,12.4,17.231H9.581A3.29,3.29,0,0,1,12.848,14.286Zm0-6.342H14.3a3.289,3.289,0,0,1-3.267,2.944H9.581A3.29,3.29,0,0,1,12.848,7.944ZM7.865,7.717A3.29,3.29,0,0,1,4.6,4.773h1A3.289,3.289,0,0,1,8.867,7.717ZM6.506,14.06a3.29,3.29,0,0,1-3.267-2.945H5.6A3.29,3.29,0,0,1,8.867,14.06Z" stroke="#C4C4C4" stroke-width="1"/>
    </symbol>
    <symbol id="trafficStreets" viewBox="-50 -50 1080 845" preserveAspectRatio="xMidYMid meet">
        <g transform="translate(0.000000,746.000000) scale(0.100000,-0.100000)" fill="#C4C4C4" stroke="none">
            <path d="M2668 7435 c-799 -109 -1335 -737 -1553 -1820 -54 -266 -95 -636 -95 -856 l0 -86 -88 -32 c-249 -89 -498 -334 -652 -641 -154 -309 -239 -661 -270 -1125 -47 -711 63 -1138 365 -1411 l73 -67 4 -351 c4 -326 6 -356 27 -424 91 -304 343 -535 650 -598 111 -22 276 -15 376 16 233 73 412 258 493 510 33 101 42 173 42 318 l0 135 143 -7 c78 -4 228 -12 332 -17 298 -15 2295 -24 2295 -10 0 7 26 11 75 11 49 0 75 -4 75 -11 0 -14 2061 -5 2360 10 107 5 252 13 323 17 l127 7 0 -139 c0 -217 51 -382 164 -531 168 -221 410 -334 685 -320 282 14 518 172 647 432 82 166 87 200 92 603 l4 353 85 82 c231 222 333 504 350 967 24 697 -174 1343 -562 1824 -88 110 -267 285 -357 349 l-65 46 -6 178 c-12 315 -59 653 -132 950 -219 883 -668 1430 -1314 1599 -215 56 -139 54 -2459 53 -1715 -1 -2156 -4 -2234 -14z m4112 -515 c399 -49 713 -231 948 -548 256 -346 416 -877 439 -1454 l6 -158 -3258 0 -3258 0 6 159 c34 815 320 1472 774 1779 169 114 385 194 598 221 103 13 3640 14 3745 1z m-5386 -3030 c188 -48 338 -170 426 -348 41 -83 60 -170 60 -277 0 -187 -56 -322 -190 -455 -133 -134 -268 -190 -455 -190 -180 0 -327 61 -455 190 -313 313 -228 834 169 1034 128 65 301 83 445 46z m7290 0 c188 -48 338 -170 426 -348 41 -83 60 -170 60 -277 0 -187 -56 -322 -190 -455 -133 -134 -268 -190 -455 -190 -180 0 -327 61 -455 190 -353 353 -190 953 294 1080 96 25 222 25 320 0z m-1899 -750 c221 -57 404 -247 451 -471 19 -86 14 -226 -10 -302 -51 -162 -175 -310 -316 -379 -146 -72 -21 -68 -1876 -68 -1631 0 -1673 0 -1748 20 -220 56 -400 237 -451 451 -19 81 -19 216 0 297 53 224 253 416 480 462 22 4 794 8 1716 9 1644 1 1677 1 1754 -19z"/>
        </g>
    </symbol>
    <symbol id="info" viewBox="0 0 322.28 319.28" preserveAspectRatio="xMidYMid meet">
        <defs>
            <linearGradient id="a" x1="-92.73" y1="413.5" x2="415.45" y2="-94.68" gradientUnits="userSpaceOnUse"><stop offset="0" stop-color="#152943"/><stop offset=".35" stop-color="#123a64"/><stop offset=".77" stop-color="#0f4c86"/><stop offset="1" stop-color="#0e5393"/></linearGradient><style>.b{fill:#fff}</style>
        </defs>
        <path xmlns="http://www.w3.org/2000/svg" d="M0 70.6v248.68h252.11c2.84 0 70.17-1.15 70.17-70.61V0H70.2C67.33 0 0 1.14 0 70.6zm237.06 121.59l-19.84-1.75c-23.26-2-36.74-12.79-36.74-35.12 0-24.83 20.83-38.87 46.78-38.87 18.62 0 34.53 4 46 14.3l-15.67 16.3c-7.84-6.78-18.86-9.28-30.61-9.28-14.94 0-22.53 6.77-22.53 16.3 0 7.52 3.91 13.29 17.14 14.55l19.59 1.75c23.27 2 37 13.29 37 35.87 0 26.58-22 40.37-51.67 40.37-20.33 0-37.47-3.5-52.17-18.3l16.41-16.8c10 10.53 23.51 13.29 35.76 13.29 15.18 0 27.18-5.53 27.18-17.56.02-8.52-4.63-14.05-16.63-15.05zM51 65l26.1-1.69v57.35s17.92-3.75 33.69-3.58C137 117.34 150.1 131.5 151 150c.23 4.7.18 7.29.18 12.34v82.8h-27.6v-84.42c0-9.34.59-20.93-20.27-20.84a108.56 108.56 0 00-25.37 2.94v102.29H51z" fill="url(#a)"/>
        <path xmlns="http://www.w3.org/2000/svg" class="b" d="M226.53 224.8c-12.25 0-25.71-2.76-35.76-13.29l-16.41 16.8c14.7 14.8 31.84 18.3 52.17 18.3 29.63 0 51.67-13.79 51.67-40.37 0-22.58-13.71-33.86-37-35.87l-19.59-1.75c-13.23-1.26-17.14-7-17.14-14.55 0-9.53 7.59-16.3 22.53-16.3 11.75 0 22.77 2.5 30.61 9.28l15.67-16.3c-11.51-10.29-27.42-14.3-46-14.3-25.95 0-46.78 14-46.78 38.87 0 22.33 13.48 33.11 36.74 35.12l19.84 1.75c12 1 16.65 6.53 16.65 15.05-.02 12.03-12.02 17.56-27.2 17.56zM77.94 142.82a108.56 108.56 0 0125.37-2.94c20.86-.09 20.27 11.5 20.27 20.84v84.39h27.63v-82.8c0-5.05 0-7.64-.18-12.34-.93-18.47-14.05-32.63-40.24-32.89-15.77-.17-33.69 3.58-33.69 3.58V63.31L51 65v180.11h27z"/>
    </symbol>
</svg>
