<svg xmlns="http://www.w3.org/2000/svg" viewBox="0 0 322.28 319.28">
    <defs>
        <linearGradient id="a" x1="-92.73" y1="413.5" x2="415.45" y2="-94.68" gradientUnits="userSpaceOnUse">
            <stop offset="0" stop-color="#152943"/>
            <stop offset=".35" stop-color="#123a64"/>
            <stop offset=".77" stop-color="#0f4c86"/>
            <stop offset="1" stop-color="#0e5393"/>
        </linearGradient>
        <style>.b{fill:#fff}</style>
    </defs>
    <path d="M0 70.6v248.68h252.11c2.84 0 70.17-1.15 70.17-70.61V0H70.2C67.33 0 0 1.14 0 70.6zm237.06 121.59l-19.84-1.75c-23.26-2-36.74-12.79-36.74-35.12 0-24.83 20.83-38.87 46.78-38.87 18.62 0 34.53 4 46 14.3l-15.67 16.3c-7.84-6.78-18.86-9.28-30.61-9.28-14.94 0-22.53 6.77-22.53 16.3 0 7.52 3.91 13.29 17.14 14.55l19.59 1.75c23.27 2 37 13.29 37 35.87 0 26.58-22 40.37-51.67 40.37-20.33 0-37.47-3.5-52.17-18.3l16.41-16.8c10 10.53 23.51 13.29 35.76 13.29 15.18 0 27.18-5.53 27.18-17.56.02-8.52-4.63-14.05-16.63-15.05zM51 65l26.1-1.69v57.35s17.92-3.75 33.69-3.58C137 117.34 150.1 131.5 151 150c.23 4.7.18 7.29.18 12.34v82.8h-27.6v-84.42c0-9.34.59-20.93-20.27-20.84a108.56 108.56 0 00-25.37 2.94v102.29H51z" fill="url(#a)"/><path class="b" d="M226.53 224.8c-12.25 0-25.71-2.76-35.76-13.29l-16.41 16.8c14.7 14.8 31.84 18.3 52.17 18.3 29.63 0 51.67-13.79 51.67-40.37 0-22.58-13.71-33.86-37-35.87l-19.59-1.75c-13.23-1.26-17.14-7-17.14-14.55 0-9.53 7.59-16.3 22.53-16.3 11.75 0 22.77 2.5 30.61 9.28l15.67-16.3c-11.51-10.29-27.42-14.3-46-14.3-25.95 0-46.78 14-46.78 38.87 0 22.33 13.48 33.11 36.74 35.12l19.84 1.75c12 1 16.65 6.53 16.65 15.05-.02 12.03-12.02 17.56-27.2 17.56zM77.94 142.82a108.56 108.56 0 0125.37-2.94c20.86-.09 20.27 11.5 20.27 20.84v84.39h27.63v-82.8c0-5.05 0-7.64-.18-12.34-.93-18.47-14.05-32.63-40.24-32.89-15.77-.17-33.69 3.58-33.69 3.58V63.31L51 65v180.11h27z"/>
</svg>