<svg xmlns="http://www.w3.org/2000/svg" xmlns:xlink="http://www.w3.org/1999/xlink">
    <symbol id="A" viewBox="0 9 110 68" preserveAspectRatio="xMidYMid meet">
        <path fill="#005293" d="M0 17.937 55.078 9 110 18.004V67.76L55.167 77 .013 67.803z"/>
    </symbol>
    <symbol id="B" viewBox="0 8 110 70" preserveAspectRatio="xMidYMid meet">
        <path fill="#F0C900" d="M7 76c-3.309 0-6-2.996-6-6.678V16.677C1 12.996 3.691 10 7 10h96c3.309 0 6 2.996 6 6.677v52.645c0 3.682-2.691 6.678-6 6.678H7z"/>
        <path d="M103 11c2.757 0 5 2.547 5 5.677v52.645c0 3.131-2.243 5.677-5 5.677H7c-2.757 0-5-2.547-5-5.677V16.677C2 13.547 4.243 11 7 11h96m0-2H7c-3.866 0-7 3.437-7 7.677v52.645C0 73.563 3.134 77 7 77h96c3.866 0 7-3.437 7-7.677V16.677c0-4.24-3.134-7.677-7-7.677z"/>
    </symbol>
    <symbol id="Baustelle" viewBox="7 0 97 86" preserveAspectRatio="xMidYMid meet">
        <path fill="#CC1A14" d="M7.544 80.893C9.066 78.089 50.438 4.405 51.989 1.937c1.55-2.467 4.134-2.727 5.685.13 1.55 2.857 42.818 74.906 44.574 78.047 1.515 2.71.798 5.87-2.553 5.849-3.747-.024-85.47.03-89.092.042-2.587.009-4.609-2.255-3.059-5.112z"/>
        <path fill="#FFF" d="M19.992 77.014h70.271L54.998 14.542 19.862 76.754"/><circle cx="58.12" cy="40.372" r="3.251"/>
        <path d="M54.479 74.704s-.13-.13.65-1.17 4.812-5.722 5.332-6.112c.52-.39 1.561-.78 2.081-1.3s3.901-4.682 4.292-5.202c.39-.52 1.691-1.04 2.341-1.04.65 0 2.081-.13 2.991.91.91 1.04 10.144 13.915 10.144 13.915H54.479z"/>
        <path d="M62.412 65.081s-3.336-2.776-7.285-6.052a.686.686 0 0 0 .003-.06V44.663c0-1.04-1.04-2.601-2.601-2.601h-9.233s-3.251 5.202-3.511 5.592c-.26.39-.26 1.561-.13 2.211.13.65 1.561 1.691 1.561 1.691l.889-1.563 1.885 1.547.648-1.173a165.274 165.274 0 0 0-1.881-1.521L44.92 45.3h2.991s-4.082 8.046-4.453 8.745l5.379 2.854.206-.386-.027-.015.337-.562 2.673-5.005c.011 1.839.03 3.856.059 5.577l-1.474-1.22c-.186.006-.392.106-.554.429a1.321 1.321 0 0 0-.143.678l2.207 1.808c.036 1.375.084 2.33.147 2.456.26.52 1.951 1.17 2.211.78.111-.167.246-.57.364-1.008l6.789 5.56s.26.26.65-.13.13-.78.13-.78zM42.941 55.024c-3.653 6.901-7.755 14.641-7.969 14.999-.39.65-.26 1.3-.26 1.821s.26 1.821.65 2.081l.78.52 8.525-15.003 4.48 4.989s.051 8.056.13 8.843c.13 1.3 3.121 1.561 3.121 1.561V63l-4.032-5.202-5.425-2.774z"/>
    </symbol>
    <symbol id="Info" viewBox="12 0 87 86" preserveAspectRatio="xMidYMid meet">
        <path fill="#005293" d="M98 81.302C98 84.152 96.152 86 93.303 86H16.698C13.848 86 12 84.152 12 81.303V4.698C12 1.848 13.848 0 16.697 0h76.605C96.152 0 98 1.848 98 4.697v76.605z"/>
        <path fill="#FFF" d="M25.538 13.122h59.108v60.129H25.538z"/>
        <path d="M64.064 65.4c-.993 0-1.474.156-1.474-1.645V38.188H44.479v2.056H46.6c.993 0 1.474.334 1.474 2.135v21.375c0 1.801-.481 1.645-1.474 1.645h-4.339v2.056h26.141V65.4h-4.338z"/>
        <circle cx="55.107" cy="27.325" r="6.879"/>
    </symbol>
    <symbol id="Sperrung" viewBox="12 0 86 86" preserveAspectRatio="xMidYMid meet">
        <circle fill="#CC1A14" cx="55" cy="43" r="43"/>
        <circle fill="#FFF" cx="55" cy="43" r="31.84"/>
    </symbol>
    <symbol id="Stau" viewBox="7 0 97 86" preserveAspectRatio="xMidYMid meet">
        <path fill="#CC1A14" d="M7.544 80.893C9.066 78.089 50.438 4.405 51.989 1.937c1.55-2.467 4.134-2.727 5.685.13 1.55 2.857 42.818 74.906 44.574 78.047 1.515 2.71.798 5.87-2.553 5.849-3.747-.024-85.47.03-89.092.042-2.587.009-4.609-2.255-3.059-5.112z"/>
        <path fill="#FFF" d="M19.992 77.014h70.271L54.998 14.542 19.862 76.754"/>
        <path d="M38.59 56.931c0 .369.276.433.598.433h1.298c.322 0 .598-.064.598-.433v-2.442H38.59v2.442zm8.905-2.754c.508-1.217 1.165-2.853 1.497-3.571.511-1.104 1.507-.989 1.507-.989h3.821a4.716 4.716 0 0 0-.272-.475c-.146-.22-1.36-3.282-1.797-4.226-.437-.944-1.239-.737-1.239-.737h-9.778s-.802-.207-1.239.737c-.437.944-1.652 4.006-1.797 4.226-.146.22-.534.879-.51 1.294.024.415 0 2.271 0 2.931s.68.81 1.579.81h8.228zm-7.961-5.44 1.524-3.435h10.131l1.524 3.435H39.534zm17.915 12.965c.601-1.437 1.436-3.527 1.847-4.413.604-1.304 1.783-1.167 1.783-1.167h4.983a5.271 5.271 0 0 0-.186-.307c-.17-.257-1.591-3.838-2.102-4.942-.511-1.104-1.449-.862-1.449-.862H50.89s-.982-.144-1.494.96c-.511 1.104-1.887 4.586-2.057 4.843-.17.257-.625 1.028-.597 1.514.029.486 0 2.656 0 3.427 0 .771.795.947 1.846.947h8.861zm-6.765-10.379h11.847l1.782 4.017H48.902l1.782-4.017zm29.183 13.832c.034-.573-.503-1.484-.704-1.787s-1.878-4.531-2.482-5.835c-.604-1.304-1.71-1.018-1.71-1.018H61.469s-1.179-.137-1.783 1.167c-.604 1.304-2.208 5.382-2.409 5.686s-.738 1.214-.704 1.787c.034.573 0 3.136 0 4.046s.938 1.118 2.18 1.118h18.935c1.241 0 2.18-.207 2.18-1.118s-.035-3.473-.001-4.046zm-20.745-2.348 2.104-4.742h13.988l2.104 4.742H59.122zM57.819 74.12c0 .51.381.598.825.598h1.793c.444 0 .825-.089.825-.598v-3.372h-3.443v3.372zm17.359 0c0 .51.381.598.825.598h1.793c.444 0 .825-.089.825-.598v-3.372h-3.443v3.372zm-27.38-9.198c0 .432.323.507.699.507h1.518c.376 0 .699-.075.699-.507v-2.856h-2.916v2.856z"/>
    </symbol>
    <symbol id="Unfall" viewBox="7 0 97 86" preserveAspectRatio="xMidYMid meet">
        <path fill="#CC1A14" d="M7.541 80.893C9.062 78.089 50.435 4.405 51.985 1.937c1.55-2.467 4.134-2.727 5.685.13 1.55 2.857 42.818 74.906 44.574 78.047 1.515 2.71.798 5.87-2.553 5.849-3.747-.024-85.47.03-89.092.042-2.587.009-4.609-2.255-3.058-5.112z"/>
        <path fill="#FFF" d="M19.992 77.014h70.271L54.998 14.542 19.862 76.754"/>
        <path d="M34.025 70.191c.57-.177 1.253-1.094 1.253-1.964a2.166 2.166 0 0 0-4.332 0c0 .87.676 1.75 1.253 1.964.724.268 1.255.177 1.826 0zm24.856-12.237 2.967-3.01-.977-.502zm2.967-7.526-1.484 3.512 2.724-3.088z"/>
        <circle cx="51.31" cy="66.999" r="2.166"/>
        <circle cx="77.061" cy="68.025" r="2.166"/>
        <circle cx="59.52" cy="66.728" r="2.166"/>
        <path d="M65.577 56.083v-1.428l-6.573 5.728zm3.257-1.95-1.54 1.197 2.517-.271zm-13.257 8.819c-.139.25-.555.464-.611.69-.056.226-.167.476 0 .92.167.445.266.833.438 1.139.12.212.37.557.512.749.318-.012.669-.017.953.003l.008-.074a2.665 2.665 0 0 1 5.306.447c3.992.275 8.396.749 12.219 1.001l.015-.15a2.665 2.665 0 0 1 5.304.486c.178.009.284.013.307.011.396-.031.967.1 1.02-.089a.145.145 0 0 0 .003-.062c.019-.457.143-3.317.143-3.593v-.003c.018-.07.001-.141-.078-.217-.274-.26-4.29-4.097-4.437-4.256-.147-.159-.116-.183-.474-.231-.358-.047-8.935-.618-8.935-.618-.389-.023-.546-.025-.911.402-.325.382-2.324 1.967-2.956 2.497-.246.365-.33.365-.94.226-.611-.139-1.805-.692-2.305-.735-.5-.043-.75-.207-.972 0-.222.207-.306.29-.583.263-.278-.028-.611-.417-.611-.417s-.916.683-1.055.772c-.139.089-1.361 0-1.361 0s.14.589.001.839zm16.082-2.535 3.926.278 2.468 3.155s-3.276-.191-6.682-.394l.288-3.039zm-7.417 1.974c.233-.277 2.664-2.354 2.664-2.354l3.916.321-.29 3.048c-3.268-.196-5.801-.39-6.059-.424-.551-.073-.463-.314-.231-.591zM45.321 48.999h-1.54l3.08 2.509zm1.09 5.945 3.756 2.2-3.756-3.356zm10.817-5.134v8.419l1.653-7.801zm-2.742 8.419-3.831-3.285-.301 1.254z"/>
        <path d="M29.282 68.366c.058 0 .477-.023 1.166-.064l-.002-.075a2.666 2.666 0 0 1 5.319-.253c3.993-.25 9.061-.574 12.884-.825a2.667 2.667 0 0 1 5.317-.365c.177-.014.283-.024.306-.029.389-.083.972-.028.999-.222.028-.194-.345-.278-.422-.472-.078-.194-.383-1.583-.383-1.999 0-.416.121-.639.296-.889.176-.25.592-.528.287-.75-.305-.222-4.915-3.388-5.081-3.526-.167-.139-.139-.167-.5-.167s-9.552.639-9.552.639c-.389.028-.639.194-.944.666-.305.472-2.499 2.721-2.749 3.027-.25.305-.361.305-.805.416-.444.111-5.72 1.388-6.248 1.555-.528.167-.5.333-.555.639-.056.305-.028 2.055 0 2.249.028.195.195.445.667.445zm19.603-8.522 2.86 2.886s-3.273.24-6.676.485l-.112-3.131 3.928-.24zm-11.634 3.33c.194-.305 2.332-2.683 2.332-2.683l4.537-.357.112 3.14c-3.265.234-6.414.455-6.675.455-.556 0-.5-.25-.306-.555zm13.103-13.827-1.427 1.081 6.603 7.801zm5.176 2.837-1.72.637 2.104 4.323zm-3.26-6.581-1.916.231 1.916 4.594z"/>
    </symbol>
    <symbol id="Warnung" viewBox="18 2 96 86" preserveAspectRatio="xMidYMid meet">
        <path fill="#CC1A14" d="M18.5 82.9c1.5-2.8 42.9-76.5 44.4-79 1.6-2.5 4.1-2.7 5.7.1 1.6 2.9 42.8 74.9 44.6 78 1.5 2.7.8 5.9-2.6 5.8H21.5c-2.5.2-4.5-2-3-4.9z"/>
        <path fill="#FFF" d="M31 79h70.3L66 16.5 30.9 78.8"/>
        <path d="M68.8 61.6H63l-1.9-29.4h9.7l-2 29.4zM61.5 75v-8.9h9V75h-9z"/>
    </symbol>
</svg>